<?xml version="1.0" encoding="UTF-8"?>
<svg version="1.1" xmlns="http://www.w3.org/2000/svg" width="940" height="788">
<path d="M0 0 C3.43417866 2.77703323 4.89218599 6.63605392 6.66796875 10.55859375 C7.01964111 11.32187988 7.37131348 12.08516602 7.73364258 12.87158203 C8.8917054 15.39050792 10.03974189 17.91386401 11.1875 20.4375 C11.99678602 22.20402499 12.80644266 23.97038023 13.61645508 25.73657227 C19.23317425 38.00912553 24.72838708 50.33439942 30.17807007 62.68185425 C35.10894575 73.8498069 40.2056805 84.92658908 45.42807007 95.96090698 C50.8028059 107.32661854 55.93770894 118.78768987 61.01025391 130.29101562 C65.70410614 140.927689 70.52602094 151.49151975 75.5 162 C81.18432672 174.00922528 86.63786207 186.10677041 91.99816895 198.26382446 C97.81768515 211.45269305 103.85955278 224.52617794 110.02526855 237.556427 C111.35491835 240.36873292 112.67854534 243.18383523 114 246 C114.43119141 246.9173291 114.86238281 247.8346582 115.30664062 248.77978516 C115.85868164 249.98127197 115.85868164 249.98127197 116.421875 251.20703125 C116.7322168 251.87839111 117.04255859 252.54975098 117.36230469 253.24145508 C118 255 118 255 118 258 C115.91621844 259.63182417 113.88613353 261.04269072 111.65625 262.44921875 C111.0125647 262.86669876 110.36887939 263.28417877 109.70568848 263.71430969 C107.64335609 265.04866724 105.57194956 266.36813661 103.5 267.6875 C102.10224352 268.58822967 100.70509954 269.48991059 99.30859375 270.39257812 C95.87941207 272.60616259 92.4420206 274.8064379 89 277 C86.49616264 274.49616264 85.53980184 272.05389842 84.0859375 268.81640625 C83.79957428 268.18246445 83.51321106 267.54852264 83.21817017 266.89537048 C82.26638609 264.78621786 81.32082172 262.67433223 80.375 260.5625 C79.70365943 259.07267573 79.03177492 257.58309646 78.359375 256.09375 C77.30736063 253.76351862 76.25564404 251.43315868 75.20550537 249.1020813 C71.83110521 241.61312277 68.41717757 234.14252425 64.99615479 226.67477417 C59.47709647 214.62573757 53.97964351 202.56700687 48.5 190.5 C43.36898172 179.20153721 38.22316641 167.90995252 33.0625 156.625 C32.73338623 155.9052298 32.40427246 155.18545959 32.06518555 154.44387817 C28.64261828 146.9590555 25.21796576 139.47519099 21.79039001 131.99266052 C7.256153 100.2615593 7.256153 100.2615593 1 86 C-1.67879459 89.26209662 -3.32860231 92.63779944 -5.046875 96.484375 C-5.3345575 97.12368958 -5.62223999 97.76300415 -5.91864014 98.42169189 C-6.54050533 99.80445769 -7.16024321 101.18818177 -7.77807617 102.57275391 C-9.45043748 106.31907849 -11.13962658 110.05780227 -12.828125 113.796875 C-13.34874512 114.95092834 -13.34874512 114.95092834 -13.87988281 116.1282959 C-17.34261794 123.78883377 -20.91308425 131.39702557 -24.5 139 C-29.58779131 149.79452077 -34.58218116 160.62700991 -39.5 171.5 C-44.72007421 183.04125782 -50.03859181 194.53112584 -55.4375 205.98974609 C-60.20933355 216.1224364 -64.88442114 226.29524362 -69.5 236.5 C-74.72007421 248.04125782 -80.03859181 259.53112584 -85.4375 270.98974609 C-90.20933515 281.1224398 -94.88423369 291.29532616 -99.5 301.5 C-104.48380385 312.51690667 -109.54111193 323.49556316 -114.6875 334.4375 C-115.00270599 335.10772186 -115.31791199 335.77794373 -115.64266968 336.46847534 C-115.95612335 337.13493073 -116.26957703 337.80138611 -116.5925293 338.48803711 C-117.21536067 339.81232377 -117.83816373 341.13662375 -118.4609375 342.4609375 C-118.76419449 343.10577591 -119.06745148 343.75061432 -119.37989807 344.41499329 C-123.73469349 353.68230081 -128.00955363 362.98651489 -132.29052734 372.28808594 C-135.34739295 378.92784574 -138.41297788 385.56358796 -141.47674561 392.20016479 C-143.4000595 396.3664248 -145.32309485 400.53281335 -147.24609375 404.69921875 C-147.63388 405.53939041 -148.02166626 406.37956207 -148.42120361 407.24519348 C-150.84264882 412.49168932 -153.26340485 417.7385026 -155.68365479 422.98554993 C-157.29721805 426.48365793 -158.91102157 429.98165508 -160.52484131 433.47964478 C-161.28606898 435.12979728 -162.04718182 436.78000276 -162.8081665 438.43026733 C-167.51272909 448.63243681 -172.23932665 458.82388483 -177 469 C-166.43579667 462.72703153 -155.93419858 456.3753264 -145.56665039 449.78198242 C-135.49585516 443.38878822 -125.31289735 437.17742021 -115.14794922 430.93554688 C-110.48858042 428.07068912 -105.83713203 425.19312601 -101.1875 422.3125 C-100.34074707 421.78793213 -99.49399414 421.26336426 -98.62158203 420.72290039 C-96.92914049 419.67424843 -95.23675727 418.62550233 -93.54443359 417.57666016 C-89.19723357 414.88291445 -84.84852823 412.19160083 -80.5 409.5 C-78.74999307 408.41667787 -76.99999306 407.33334454 -75.25 406.25 C-22.75 373.75 29.75 341.25 82.25 308.75 C83.54877075 307.94598755 83.54877075 307.94598755 84.8737793 307.12573242 C86.62782057 306.03991288 88.38188969 304.9541383 90.13598633 303.8684082 C94.4493816 301.19847771 98.76232676 298.52782644 103.07421875 295.85546875 C104.77864109 294.7994715 106.4830682 293.74348197 108.1875 292.6875 C109.03650879 292.16115967 109.88551758 291.63481934 110.76025391 291.0925293 C115.68952753 288.03948614 120.62753798 285.00133026 125.57421875 281.9765625 C148.58236326 268.12898522 148.58236326 268.12898522 170 252 C171.19302734 251.02546875 171.19302734 251.02546875 172.41015625 250.03125 C195.67959606 230.26513314 209.19801988 200.94552719 212.68359375 170.95703125 C215.73031349 132.85422758 204.64274276 96.8471979 179.98046875 67.60546875 C158.99306022 43.59284818 133.02675402 30.96295429 102 25 C102 24.67 102 24.34 102 24 C141.15411809 22.61264936 181.6332801 32.64208628 211.25 59.4375 C234.74827542 81.45355892 248.6807971 111.53268874 250.12597656 143.81396484 C251.32798762 190.77608045 237.87807187 234.11075699 205.28759766 268.56762695 C188.76173037 285.76860668 169.57431961 297.6558104 149.30029297 309.98291016 C144.17511072 313.11534511 139.08743275 316.30675233 134 319.5 C123.44811076 326.11259869 112.84843991 332.64548598 102.23828125 339.1640625 C96.65122565 342.59712404 91.07345296 346.04491011 85.5 349.5 C77.74052362 354.31024754 69.9662219 359.09594594 62.1875 363.875 C53.70511848 369.08714848 45.24725228 374.33614512 36.8125 379.625 C28.13068969 385.06809226 19.39989341 390.42363616 10.63720703 395.73535156 C2.78106501 400.50548649 -5.01532988 405.3670235 -12.80200195 410.24951172 C-22.41487755 416.27242965 -32.07701004 422.21385799 -41.7421875 428.15234375 C-47.43916143 431.65300955 -53.12816348 435.16635743 -58.8125 438.6875 C-59.66328125 439.21448486 -60.5140625 439.74146973 -61.390625 440.28442383 C-63.92725761 441.85600154 -66.46367308 443.427929 -69 445 C-72.39554465 447.10463298 -75.79133344 449.2088707 -79.1875 451.3125 C-80.0434375 451.84270752 -80.899375 452.37291504 -81.78125 452.91918945 C-87.68411874 456.57311309 -93.5959783 460.21220135 -99.51098633 463.84643555 C-110.01275304 470.29908508 -120.4876593 476.79164922 -130.93164062 483.33740234 C-139.59406729 488.76072267 -148.29542141 494.11965191 -157.00976562 499.45898438 C-158.02361328 500.08095703 -159.03746094 500.70292969 -160.08203125 501.34375 C-160.96093018 501.88193359 -161.8398291 502.42011719 -162.74536133 502.97460938 C-165.90371247 504.87118138 -165.90371247 504.87118138 -168.32621765 506.76234436 C-175.92022126 512.23325773 -181.76179262 512.95354613 -190.98046875 512.68359375 C-192.27447098 512.67368912 -193.56847321 512.66378448 -194.90168762 512.65357971 C-198.30395235 512.62714371 -201.70404783 512.55865044 -205.10546875 512.48065186 C-208.59149849 512.40840095 -212.07788681 512.37693809 -215.56445312 512.34179688 C-222.37718035 512.26724169 -229.18848541 512.14814004 -236 512 C-233.85308993 506.54684168 -231.68074146 501.13481964 -229.1796875 495.83203125 C-228.65407227 494.71256104 -228.12845703 493.59309082 -227.58691406 492.43969727 C-227.30948364 491.8519754 -227.03205322 491.26425354 -226.74621582 490.65872192 C-225.19150027 487.36407338 -223.64721452 484.06453273 -222.1015625 480.765625 C-221.77152222 480.06176163 -221.44148193 479.35789825 -221.10144043 478.63270569 C-217.11569222 470.12560794 -213.18290228 461.59412256 -209.25 453.0625 C-208.4855266 451.40469812 -207.72104083 449.74690193 -206.95654297 448.08911133 C-205.4089316 444.73286171 -203.86161878 441.37647463 -202.31445312 438.02001953 C-198.91923033 430.65495659 -195.51998082 423.29175234 -192.12097168 415.92843628 C-190.24714352 411.86903641 -188.37358566 407.8095118 -186.5 403.75 C-185.75000129 402.1249994 -185.00000129 400.4999994 -184.25 398.875 C-183.87875 398.070625 -183.5075 397.26625 -183.125 396.4375 C-146 316 -108.875 235.5625 -70.62507629 152.68766785 C-69.8748194 151.06210955 -69.12456509 149.43655006 -68.37431335 147.81098938 C-66.50326495 143.75702158 -64.63217219 139.70307427 -62.76098633 135.64916992 C-59.3387734 128.23486472 -55.91693361 120.82038821 -52.49667358 113.40518188 C-45.01062157 97.17530265 -37.51998927 80.94777778 -29.98461914 64.74072266 C-24.41655418 52.75832379 -18.88461794 40.75926169 -13.35351562 28.75976562 C-8.92792687 19.16112982 -4.47988654 9.57341958 0 0 Z " fill="#BEAB57" transform="translate(386,101)"/>
<path d="M0 0 C10.72931152 23.20625705 21.41734734 46.43063214 32.03222656 69.68945312 C35.35127928 76.96125216 38.67608671 84.23042184 42 91.5 C43.3281807 94.40492245 44.65630486 97.30987075 45.984375 100.21484375 C46.31353912 100.93484055 46.64270325 101.65483734 46.98184204 102.39665222 C49.02255964 106.86078031 51.06225532 111.3253739 53.10119629 115.79031372 C54.48549728 118.82159149 55.87017919 121.8526952 57.25488281 124.88378906 C57.89439219 126.28393178 58.5337296 127.68415306 59.17285156 129.08447266 C65.40665297 142.74253483 71.70838348 156.36816422 78 170 C162.15 170.495 162.15 170.495 248 171 C246.58470012 174.53824969 245.41885815 177.14248661 243.42578125 180.2578125 C242.92240234 181.04929687 242.41902344 181.84078125 241.90039062 182.65625 C241.37638672 183.4709375 240.85238281 184.285625 240.3125 185.125 C239.80783203 185.91648437 239.30316406 186.70796875 238.78320312 187.5234375 C237.76818334 189.11461895 236.73722086 190.69576312 235.68920231 192.26540661 C233.94330291 194.9530341 233.94330291 194.9530341 232.73553371 197.85596943 C231.13270176 201.15200266 229.65662223 203.45782439 227 206 C221.48445289 207.62307781 216.12206785 207.3948438 210.41625977 207.2487793 C208.72066959 207.24567419 207.02506463 207.24742266 205.32948303 207.25364685 C200.73783153 207.2567978 196.14935351 207.19222704 191.55843854 207.11533332 C186.75664788 207.04647342 181.95478085 207.04010007 177.15257263 207.02705383 C168.06436822 206.99289125 158.97762284 206.90266379 149.89006037 206.79220945 C139.54205487 206.66917093 129.19397892 206.60875612 118.84542382 206.55355966 C97.56280214 206.4386428 76.28149305 206.24521709 55 206 C53.71257068 203.43130903 52.42580555 200.86228896 51.13941956 198.29307556 C50.77654799 197.569241 50.41367642 196.84540645 50.03980875 196.09963751 C47.62230704 191.26965067 45.26398817 186.42063851 43.02734375 181.50390625 C42.7023439 180.79552109 42.37734406 180.08713593 42.04249573 179.35728455 C41.00480254 177.09357852 39.97106346 174.82809412 38.9375 172.5625 C38.19420935 170.93871101 37.45071555 169.31501499 36.70703125 167.69140625 C31.33599182 155.9576109 25.99753303 144.20896004 20.66577148 132.45727539 C15.97554688 122.12353984 11.24369428 111.80928466 6.5 101.5 C-6.12558368 74.05686377 -18.58190347 46.53754165 -31 19 C-26.34829951 14.02079233 -20.68823288 10.82268079 -14.9375 7.25 C-13.83599609 6.55261719 -12.73449219 5.85523438 -11.59960938 5.13671875 C-10.54451172 4.47800781 -9.48941406 3.81929688 -8.40234375 3.140625 C-7.43804443 2.53766602 -6.47374512 1.93470703 -5.48022461 1.31347656 C-3 0 -3 0 0 0 Z " fill="#BEAB57" transform="translate(590,407)"/>
<path d="M0 0 C12.87 0 25.74 0 39 0 C55.48449066 35.82992598 55.48449066 35.82992598 63.5 53.5 C68.7805655 65.13977986 74.0962547 76.76293935 79.4375 88.375 C84.99260597 100.45222061 90.53778764 112.53384214 96.0625 124.625 C96.39096924 125.34381348 96.71943848 126.06262695 97.05786133 126.80322266 C99.70242873 132.59076918 102.34605561 138.37874517 104.98962402 144.16674805 C107.30513418 149.23637035 109.62113794 154.30576689 111.9375 159.375 C112.26165894 160.0845282 112.58581787 160.7940564 112.9197998 161.52508545 C116.82931581 170.08143633 120.74829089 178.63336629 124.6796875 187.1796875 C125.0681636 188.02433563 125.45663971 188.86898376 125.85688782 189.73922729 C127.73847087 193.82985633 129.62115313 197.91997383 131.50561523 202.00927734 C132.18736332 203.49054789 132.8690866 204.97182986 133.55078125 206.453125 C133.85631927 207.11512909 134.1618573 207.77713318 134.47665405 208.459198 C135.32461134 210.30300076 136.16248365 212.15143122 137 214 C137.29055267 214.63305054 137.58110535 215.26610107 137.88046265 215.91833496 C139.16851959 218.79616436 140 220.80911763 140 224 C138.09597337 225.56096911 136.25337965 226.89357964 134.19921875 228.23046875 C133.31095146 228.8233947 133.31095146 228.8233947 132.40473938 229.42829895 C131.14951373 230.26277338 129.89087183 231.09212812 128.62915039 231.91674805 C126.69760577 233.18088607 124.7789815 234.46296047 122.86132812 235.74804688 C121.64135195 236.55578653 120.42067117 237.36246319 119.19921875 238.16796875 C118.33655647 238.74444405 118.33655647 238.74444405 117.45646667 239.33256531 C114.72450666 241.10567755 113.32851097 242 110 242 C100.44267513 221.82932369 91.03713835 201.59847191 81.83714294 181.2624054 C78.28614303 173.41593129 74.70700609 165.58235729 71.125 157.75 C70.79483887 157.02789337 70.46467773 156.30578674 70.12451172 155.5617981 C64.57438975 143.42428228 59.00390466 131.29616265 53.42880249 119.17010498 C46.59219997 104.29962247 39.78279568 89.41682213 32.98339844 74.52929688 C30.63619752 69.39067368 28.28558509 64.2536196 25.93359375 59.1171875 C22.28143383 51.14068396 18.63529777 43.16144767 14.99450684 35.17974854 C13.97636651 32.9482004 12.95742515 30.71701902 11.93847656 28.48583984 C10.26922375 24.82928501 8.60427396 21.17079821 6.94244385 17.51086426 C6.31853999 16.13828385 5.69335439 14.76628528 5.0668335 13.39489746 C4.20767086 11.51355247 3.35322427 9.63013771 2.5 7.74609375 C2.0153125 6.68060303 1.530625 5.6151123 1.03125 4.51733398 C0 2 0 2 0 0 Z " fill="#BEAB57" transform="translate(412,103)"/>
<path d="M0 0 C7.8523509 17.15803316 15.69835529 34.31884106 23.5 51.5 C28.64983086 62.84106856 33.81775698 74.17370568 39 85.5 C44.79506621 98.16567879 50.57339714 110.83879971 56.32470703 123.52441406 C59.67879411 130.91843078 63.05690468 138.30070874 66.4609375 145.671875 C67.57151767 148.08196997 68.68169487 150.49225015 69.79174805 152.90258789 C70.50772449 154.45411224 71.22562768 156.00474907 71.94555664 157.55444336 C72.94502535 159.70600901 73.93796568 161.86048008 74.9296875 164.015625 C75.22684662 164.65054871 75.52400574 165.28547241 75.83016968 165.93963623 C77.41017319 169.39119604 78.24139847 172.20699235 79 176 C66.13 176 53.26 176 40 176 C36.5040625 168.08 36.5040625 168.08 32.9375 160 C27.59247741 147.93437738 22.1465241 135.92742968 16.5 124 C11.16851199 112.73670502 6.02793203 101.40198211 1 90 C-4.17456198 78.26597669 -9.46622959 66.59879434 -14.9375 55 C-15.40592819 54.006586 -15.40592819 54.006586 -15.88381958 52.99310303 C-16.19100922 52.34166321 -16.49819885 51.69022339 -16.81469727 51.01904297 C-17.41817305 49.7392774 -18.02160812 48.45949263 -18.625 47.1796875 C-18.91467148 46.56535858 -19.20434296 45.95102966 -19.50279236 45.31808472 C-22.19207294 39.60705821 -24.83412235 33.87564971 -27.4375 28.125 C-27.80931396 27.3103125 -28.18112793 26.495625 -28.56420898 25.65625 C-31 20.24045736 -31 20.24045736 -31 18 C-29.30688477 16.76660156 -29.30688477 16.76660156 -26.94140625 15.390625 C-26.07966797 14.88273437 -25.21792969 14.37484375 -24.33007812 13.8515625 C-23.41677734 13.32304687 -22.50347656 12.79453125 -21.5625 12.25 C-19.7916427 11.21580894 -18.0221027 10.17935886 -16.25390625 9.140625 C-15.38137207 8.62822266 -14.50883789 8.11582031 -13.60986328 7.58789062 C-10.25111759 5.54436565 -7.01568067 3.34308287 -3.79272461 1.09277344 C-2 0 -2 0 0 0 Z " fill="#BEAB57" transform="translate(541,437)"/>
</svg>
