<?xml version="1.0" encoding="UTF-8"?>
<svg version="1.1" xmlns="http://www.w3.org/2000/svg" width="790" height="123">
<path d="M0 0 C0.66 0 1.32 0 2 0 C2.42297363 0.93158936 2.84594727 1.86317871 3.28173828 2.82299805 C4.88045654 6.34385166 6.47970656 9.86446353 8.07910156 13.38500977 C8.76576569 14.89666462 9.45229355 16.40838138 10.13867188 17.92016602 C10.80549098 19.38882534 11.47262452 20.85734193 12.14007568 22.32571411 C12.80120175 23.78151249 13.46091403 25.23795376 14.11920166 26.69503784 C15.66066071 30.09877578 17.22427478 33.48572126 18.86621094 36.84228516 C19.4234082 37.99390137 19.98060547 39.14551758 20.5546875 40.33203125 C21.05210449 41.33596924 21.54952148 42.33990723 22.06201172 43.37426758 C23 46 23 46 22.96533203 48.16674805 C22 50 22 50 17 53 C9.08 36.17 9.08 36.17 1 19 C-5.12015082 31.17167338 -5.12015082 31.17167338 -11.03515625 43.4375 C-11.36237167 44.13157959 -11.6895871 44.82565918 -12.02671814 45.54077148 C-12.70373694 46.97823245 -13.37982077 48.41613417 -14.05493164 49.85449219 C-15.06287412 52.00079664 -16.07519774 54.14499605 -17.08789062 56.2890625 C-21.56166227 65.78766083 -25.84075852 75.35970702 -30 85 C-27.3266019 84.1088673 -25.39431049 83.13707042 -23 81.69921875 C-22.20513184 81.22282959 -21.41026367 80.74644043 -20.59130859 80.25561523 C-19.73617676 79.73813721 -18.88104492 79.22065918 -18 78.6875 C-17.11006348 78.15133057 -16.22012695 77.61516113 -15.30322266 77.06274414 C-8.49347029 72.94333115 -1.74913831 68.72652737 4.96142578 64.44775391 C8.95126324 61.90770476 12.95850463 59.40800198 17.015625 56.9765625 C17.8307959 56.48679932 18.6459668 55.99703613 19.48583984 55.49243164 C21.02929365 54.56866208 22.57627511 53.65074981 24.12744141 52.73999023 C31.11377185 48.55319258 37.62964673 43.33652223 39.7109375 35.1171875 C40.73052449 27.6494017 39.44647089 20.14421432 35 14 C30.67580935 9.17095461 26.11995517 6.93261742 20 5 C20 4.67 20 4.34 20 4 C27.26526429 3.35419873 34.22904437 5.24009769 40.15625 9.578125 C46.30201366 15.35930946 48.14968643 20.50188315 48.4375 28.8125 C48.20668868 37.88146157 45.75763624 45.25987755 39.4453125 51.90234375 C33.49715296 57.00483844 26.66528176 60.91733288 20 65 C17.9841089 66.24436068 15.96849827 67.4891758 13.953125 68.734375 C9.56568551 71.44096636 5.17289881 74.13864343 0.77734375 76.83203125 C-7.05038176 81.63522792 -14.834186 86.50731755 -22.61157227 91.39160156 C-24.02587524 92.2786377 -24.02587524 92.2786377 -25.46875 93.18359375 C-26.71301758 93.96561157 -26.71301758 93.96561157 -27.98242188 94.76342773 C-31.62689755 96.9971244 -33.83031587 97.10818813 -38.125 97.0625 C-39.22070312 97.05347656 -40.31640625 97.04445313 -41.4453125 97.03515625 C-42.70988281 97.01775391 -42.70988281 97.01775391 -44 97 C-41.68513077 89.19163514 -38.30320507 81.9979242 -34.79302979 74.67636108 C-32.98839874 70.91086097 -31.20133608 67.13704365 -29.4140625 63.36328125 C-29.0467099 62.58829788 -28.6793573 61.81331451 -28.3008728 61.0148468 C-24.48528965 52.9464968 -20.79809733 44.82145753 -17.125 36.6875 C-11.56543571 24.38541999 -5.87677714 12.15455789 0 0 Z " fill="#BEAA56" transform="translate(395,16)"/>
<path d="M0 0 C4.60916107 -0.09202984 9.21511369 -0.1715972 13.82446289 -0.21972656 C15.39097923 -0.23979558 16.95742109 -0.26705751 18.52368164 -0.30175781 C20.78029794 -0.35048754 23.03592083 -0.3730147 25.29296875 -0.390625 C25.98899704 -0.41127014 26.68502533 -0.43191528 27.40214539 -0.45318604 C30.97456342 -0.4548206 32.89942037 -0.06326166 35.95117188 1.85620117 C38 4 38 4 38.48828125 6.69140625 C38.40126953 8.11259766 38.40126953 8.11259766 38.3125 9.5625 C38.26738281 10.51253906 38.22226563 11.46257813 38.17578125 12.44140625 C38.08876953 13.70791016 38.08876953 13.70791016 38 15 C38 16.78029507 38.02530312 18.5613545 38.10546875 20.33984375 C38.13253906 21.19707031 38.15960938 22.05429688 38.1875 22.9375 C38.23970703 24.21947266 38.23970703 24.21947266 38.29296875 25.52734375 C37.91660081 28.70388915 37.3340815 29.79408561 35 32 C32.21427646 32.35599078 29.82963409 32.46710804 27.05078125 32.390625 C26.27816452 32.38496521 25.50554779 32.37930542 24.70951843 32.37347412 C22.24321371 32.35109327 19.77836508 32.30089703 17.3125 32.25 C15.63999495 32.22993706 13.96746711 32.21168592 12.29492188 32.1953125 C8.19560319 32.15462447 4.09942994 32.07634738 0 32 C0 21.44 0 10.88 0 0 Z M5 5 C5 7.97 5 10.94 5 14 C9.47915328 14.02886338 13.95828291 14.04675187 18.4375 14.0625 C19.71689453 14.07087891 20.99628906 14.07925781 22.31445312 14.08789062 C23.52939453 14.09111328 24.74433594 14.09433594 25.99609375 14.09765625 C27.12200928 14.10289307 28.2479248 14.10812988 29.40795898 14.11352539 C31.92970871 14.29545448 31.92970871 14.29545448 33 13 C33.16666667 9.5 33.16666667 9.5 33 6 C31.92970871 4.70454552 31.92970871 4.70454552 29.40795898 4.88647461 C28.28204346 4.89171143 27.15612793 4.89694824 25.99609375 4.90234375 C24.17368164 4.90717773 24.17368164 4.90717773 22.31445312 4.91210938 C21.03505859 4.92048828 19.75566406 4.92886719 18.4375 4.9375 C16.51260742 4.94426758 16.51260742 4.94426758 14.54882812 4.95117188 C11.36583978 4.96300455 8.18294238 4.97948932 5 5 Z M5 19 C5 21.97 5 24.94 5 28 C9.29165262 28.02891949 13.58328036 28.04677118 17.875 28.0625 C19.09832031 28.07087891 20.32164063 28.07925781 21.58203125 28.08789062 C22.74863281 28.09111328 23.91523437 28.09433594 25.1171875 28.09765625 C26.19597168 28.10289307 27.27475586 28.10812988 28.38623047 28.11352539 C30.98232186 28.17883106 30.98232186 28.17883106 33 27 C33.04241723 24.66705225 33.04092937 22.33297433 33 20 C31.92970871 18.70454552 31.92970871 18.70454552 29.40795898 18.88647461 C28.28204346 18.89171143 27.15612793 18.89694824 25.99609375 18.90234375 C24.17368164 18.90717773 24.17368164 18.90717773 22.31445312 18.91210938 C21.03505859 18.92048828 19.75566406 18.92886719 18.4375 18.9375 C16.51260742 18.94426758 16.51260742 18.94426758 14.54882812 18.95117188 C11.36583978 18.96300455 8.18294238 18.97948932 5 19 Z " fill="#BDAA56" transform="translate(66,45)"/>
<path d="M0 0 C1.98 0 3.96 0 6 0 C9.63 7.59 13.26 15.18 17 23 C20.45552692 15.81222845 20.45552692 15.81222845 23.87988281 8.60961914 C24.31655273 7.71879639 24.75322266 6.82797363 25.203125 5.91015625 C25.86296387 4.53549194 25.86296387 4.53549194 26.53613281 3.13305664 C28 1 28 1 30.17480469 0.19311523 C30.77711914 0.12938721 31.37943359 0.06565918 32 0 C33.65296119 3.07956288 35.29610171 6.16426079 36.9375 9.25 C37.40607422 10.12269531 37.87464844 10.99539062 38.35742188 11.89453125 C38.80537109 12.73886719 39.25332031 13.58320312 39.71484375 14.453125 C40.12855225 15.22817383 40.54226074 16.00322266 40.96850586 16.80175781 C41.9392844 18.8706075 42.53558429 20.7690269 43 23 C43.66 23 44.32 23 45 23 C45.24492187 22.19304687 45.48984375 21.38609375 45.7421875 20.5546875 C47.26131237 16.26150851 49.15727098 12.22733258 51.125 8.125 C51.49753906 7.34125 51.87007813 6.5575 52.25390625 5.75 C53.16618997 3.83186501 54.08266984 1.91572671 55 0 C56.65 0 58.3 0 60 0 C58.94804363 6.53177492 55.96342121 12.26755228 53.25 18.25 C52.7240625 19.45914063 52.198125 20.66828125 51.65625 21.9140625 C51.13546875 23.06132813 50.6146875 24.20859375 50.078125 25.390625 C49.37284668 26.9689209 49.37284668 26.9689209 48.65332031 28.57910156 C47 31 47 31 44.30761719 31.85058594 C43.54610352 31.89989258 42.78458984 31.94919922 42 32 C41.56131592 31.16021606 41.56131592 31.16021606 41.11376953 30.3034668 C39.78591523 27.76389935 38.45548744 25.22568886 37.125 22.6875 C36.66480469 21.80642578 36.20460937 20.92535156 35.73046875 20.01757812 C35.06337891 18.74624023 35.06337891 18.74624023 34.3828125 17.44921875 C33.77010498 16.27879028 33.77010498 16.27879028 33.14501953 15.0847168 C31.93059789 12.80312614 31.93059789 12.80312614 30 10 C26.37 17.26 22.74 24.52 19 32 C14 31 14 31 12.25488281 28.47143555 C11.74280273 27.370979 11.23072266 26.27052246 10.703125 25.13671875 C10.42402283 24.54832718 10.14492065 23.95993561 9.85736084 23.35371399 C8.97076338 21.4725975 8.11076349 19.5805542 7.25 17.6875 C6.65655827 16.42437238 6.06152287 15.16199219 5.46484375 13.90039062 C0.80242939 3.94567707 0.80242939 3.94567707 0 0 Z " fill="#BDAB56" transform="translate(218,45)"/>
<path d="M0 0 C5.62510444 1.12502089 5.62510444 1.12502089 7.97265625 4.60546875 C8.73352539 5.71051758 8.73352539 5.71051758 9.50976562 6.83789062 C10.02216797 7.61326172 10.53457031 8.38863281 11.0625 9.1875 C11.8369043 10.32155273 11.8369043 10.32155273 12.62695312 11.47851562 C14.51966427 14.25851047 16.39733069 17.04398214 18.19091797 19.88916016 C19.08061105 21.29019002 20.03372008 22.65065143 21 24 C21.66 24 22.32 24 23 24 C24.33562563 22.50280991 24.33562563 22.50280991 25.64453125 20.52734375 C26.15693359 19.79193359 26.66933594 19.05652344 27.19726562 18.29882812 C27.73029297 17.51958984 28.26332031 16.74035156 28.8125 15.9375 C30.37678708 13.68098206 31.94142953 11.42475314 33.51025391 9.17138672 C34.48187929 7.75518938 35.43327097 6.32483107 36.36083984 4.87939453 C37.63671875 2.94140625 37.63671875 2.94140625 40 0 C41.32 0 42.64 0 44 0 C44 10.56 44 21.12 44 32 C42.35 32 40.7 32 39 32 C38.67 25.73 38.34 19.46 38 13 C37.11957031 14.28777344 36.23914063 15.57554688 35.33203125 16.90234375 C34.15960706 18.58125518 32.98638842 20.25961202 31.8125 21.9375 C31.23435547 22.78763672 30.65621094 23.63777344 30.06054688 24.51367188 C29.49013672 25.32255859 28.91972656 26.13144531 28.33203125 26.96484375 C27.81358643 27.7137085 27.2951416 28.46257324 26.76098633 29.23413086 C24.58715573 31.413989 23.01257411 31.6742556 20 32 C18.04034952 29.39682213 16.08251018 26.79228758 14.125 24.1875 C13.29162109 23.08051758 13.29162109 23.08051758 12.44140625 21.95117188 C11.90644531 21.23896484 11.37148438 20.52675781 10.8203125 19.79296875 C10.32805176 19.1383667 9.83579102 18.48376465 9.32861328 17.80932617 C8.17467505 16.23787519 7.08145651 14.62218477 6 13 C5.67 19.27 5.34 25.54 5 32 C3.35 32 1.7 32 0 32 C0 21.44 0 10.88 0 0 Z " fill="#BDAA56" transform="translate(567,45)"/>
<path d="M0 0 C12.21 0 24.42 0 37 0 C37 1.65 37 3.3 37 5 C26.44 5 15.88 5 5 5 C5 7.97 5 10.94 5 14 C14.24 14 23.48 14 33 14 C33 15.65 33 17.3 33 19 C23.76 19 14.52 19 5 19 C5 21.97 5 24.94 5 28 C15.56 28 26.12 28 37 28 C37 29.32 37 30.64 37 32 C24.79 32 12.58 32 0 32 C0 21.44 0 10.88 0 0 Z " fill="#BEAA56" transform="translate(688,45)"/>
<path d="M0 0 C5.011875 -0.061875 10.02375 -0.12375 15.1875 -0.1875 C16.76039795 -0.21481201 18.3332959 -0.24212402 19.95385742 -0.27026367 C21.20013916 -0.27775635 22.4464209 -0.28524902 23.73046875 -0.29296875 C25.63928833 -0.31653442 25.63928833 -0.31653442 27.58666992 -0.34057617 C32.23065291 0.12279242 34.83161819 1.58618131 37.78515625 5.16015625 C39.42604531 8.99593227 39.47696779 12.30773406 39.4375 16.4375 C39.4674707 17.54448242 39.4674707 17.54448242 39.49804688 18.67382812 C39.49341444 23.88531555 38.42815151 26.86962006 35 31 C31.98786971 32.50606515 28.88717378 32.12160331 25.5859375 32.09765625 C24.85629791 32.0962413 24.12665833 32.09482635 23.37490845 32.09336853 C21.04156415 32.08776531 18.70831536 32.07521235 16.375 32.0625 C14.79427222 32.05748541 13.21354293 32.05292243 11.6328125 32.04882812 C7.75514182 32.03864517 3.87767798 32.01907055 0 32 C0 21.44 0 10.88 0 0 Z M5 5 C5 12.59 5 20.18 5 28 C8.9168502 28.05390161 12.83296001 28.09362783 16.75 28.125 C17.86117187 28.14175781 18.97234375 28.15851563 20.1171875 28.17578125 C21.18710937 28.18222656 22.25703125 28.18867187 23.359375 28.1953125 C24.34389648 28.20578613 25.32841797 28.21625977 26.34277344 28.22705078 C29.0936186 27.99200062 30.69813448 27.4979873 33 26 C34.50143544 22.99712912 34.26574018 19.916891 34.3125 16.625 C34.35600586 15.61566406 34.35600586 15.61566406 34.40039062 14.5859375 C34.44185031 11.34570346 34.31640472 9.41936071 32.33959961 6.79931641 C29.38652556 4.52819507 27.83254138 4.53402977 24.140625 4.609375 C23.02558594 4.62226562 21.91054688 4.63515625 20.76171875 4.6484375 C19.60285156 4.68195312 18.44398438 4.71546875 17.25 4.75 C15.48849609 4.77707031 15.48849609 4.77707031 13.69140625 4.8046875 C10.79392243 4.85180106 7.89685805 4.92354334 5 5 Z " fill="#BEAB56" transform="translate(738,45)"/>
<path d="M0 0 C7.239375 -0.0928125 7.239375 -0.0928125 14.625 -0.1875 C16.89238037 -0.22846802 16.89238037 -0.22846802 19.20556641 -0.27026367 C21.01033447 -0.28150269 21.01033447 -0.28150269 22.8515625 -0.29296875 C24.07697754 -0.3086792 25.30239258 -0.32438965 26.56494141 -0.34057617 C30.38981207 0.03864874 32.75025038 0.9746091 36 3 C38.89591497 7.34387245 38.40641314 11.26293826 38.4375 16.375 C38.47037109 17.32117188 38.50324219 18.26734375 38.53710938 19.2421875 C38.54419922 20.16 38.55128906 21.0778125 38.55859375 22.0234375 C38.57204834 22.85794434 38.58550293 23.69245117 38.59936523 24.55224609 C37.68882022 28.27083035 36.02888667 29.71867368 33 32 C30.21162027 32.44003142 28.05947947 32.59085432 25.29296875 32.48828125 C24.56757401 32.48120651 23.84217926 32.47413177 23.09480286 32.46684265 C20.79129297 32.43898406 18.49026749 32.37627191 16.1875 32.3125 C14.62047797 32.28740563 13.0534176 32.26459444 11.48632812 32.24414062 C7.65583902 32.19344596 3.83067957 32.09560764 0 32 C0 21.44 0 10.88 0 0 Z M5 5 C5 12.59 5 20.18 5 28 C8.91707941 28.08085714 12.83249359 28.14043614 16.75 28.1875 C17.86117187 28.21263672 18.97234375 28.23777344 20.1171875 28.26367188 C21.72207031 28.27817383 21.72207031 28.27817383 23.359375 28.29296875 C24.34389648 28.3086792 25.32841797 28.32438965 26.34277344 28.34057617 C29.46641584 27.94021958 30.81211023 27.24962804 33 25 C33.37866276 22.01840343 33.51434905 19.4698438 33.4375 16.5 C33.44458984 15.72785156 33.45167969 14.95570312 33.45898438 14.16015625 C33.47164446 9.99448173 33.47164446 9.99448173 31.83300781 6.27416992 C29.24365633 4.47424646 27.3707624 4.65932849 24.23828125 4.70703125 C23.12001953 4.71669922 22.00175781 4.72636719 20.84960938 4.73632812 C19.09874023 4.7740332 19.09874023 4.7740332 17.3125 4.8125 C16.13365234 4.82603516 14.95480469 4.83957031 13.74023438 4.85351562 C10.82662867 4.88890355 7.91325736 4.94271089 5 5 Z " fill="#BDAB56" transform="translate(118,45)"/>
<path d="M0 0 C3.14752159 4.72128238 5.32420994 9.94063854 7.70507812 15.0793457 C8.62427991 17.06094765 9.55018402 19.03932292 10.4765625 21.01757812 C11.06030552 22.27324713 11.64365259 23.52910029 12.2265625 24.78515625 C12.75846191 25.92863525 13.29036133 27.07211426 13.83837891 28.25024414 C15 31 15 31 15 33 C25.56 33 36.12 33 47 33 C45 38 45 38 44 40 C32.78 40 21.56 40 10 40 C7.87871904 35.51748571 5.75968687 31.0340457 3.64624023 26.54785156 C2.92683525 25.02249906 2.20614278 23.49775307 1.48413086 21.97363281 C0.44564946 19.78088612 -0.58815934 17.58598912 -1.62109375 15.390625 C-1.94403915 14.7113092 -2.26698456 14.03199341 -2.59971619 13.33209229 C-4.03772043 10.26502518 -5.3723091 7.34273261 -6 4 C-4.02 2.68 -2.04 1.36 0 0 Z " fill="#BEAB57" transform="translate(434,73)"/>
<path d="M0 0 C5.13879793 1.02775959 7.61290957 2.67572619 11.5 5.875 C12.10295898 6.35952637 12.70591797 6.84405273 13.32714844 7.34326172 C18.25926632 11.32926537 23.10948205 15.41717974 27.91210938 19.55810547 C30.77393135 22.04224592 30.77393135 22.04224592 34 24 C34 16.08 34 8.16 34 0 C35.65 0 37.3 0 39 0 C39 10.56 39 21.12 39 32 C33.37600852 32 33.37600852 32 30.1796875 29.25390625 C29.48415771 28.66754395 28.78862793 28.08118164 28.07202148 27.47705078 C26.98449585 26.52934814 26.98449585 26.52934814 25.875 25.5625 C24.36341271 24.27979299 22.85169371 22.99724117 21.33984375 21.71484375 C20.60362793 21.08304199 19.86741211 20.45124023 19.10888672 19.80029297 C16.25399503 17.36315807 13.35041478 14.99245349 10.4375 12.625 C8.973125 11.42875 7.50875 10.2325 6 9 C5.67 16.59 5.34 24.18 5 32 C3.35 32 1.7 32 0 32 C0 21.44 0 10.88 0 0 Z " fill="#BDAA56" transform="translate(289,45)"/>
<path d="M0 0 C2.3263632 0.38295565 3.66330697 0.64930661 5.32104492 2.37597656 C5.89495972 3.24947754 5.89495972 3.24947754 6.48046875 4.140625 C6.91834717 4.79337402 7.35622559 5.44612305 7.80737305 6.11865234 C8.26281494 6.82199707 8.71825684 7.5253418 9.1875 8.25 C10.15574766 9.70606334 11.1245058 11.16178733 12.09375 12.6171875 C12.57714844 13.3503418 13.06054688 14.08349609 13.55859375 14.83886719 C14.91683724 16.8753122 16.30652255 18.88353743 17.71875 20.8828125 C18.13616455 21.47416992 18.5535791 22.06552734 18.98364258 22.67480469 C20.12816169 24.29119712 21.273055 25.90732457 22.41796875 27.5234375 C24 30 24 30 24 32 C21.25 32.375 21.25 32.375 18 32 C17.5359375 31.0203125 17.071875 30.040625 16.59375 29.03125 C14.35398966 25.79821496 14.35398966 25.79821496 11.33886719 25.41259766 C7.96534374 25.18340408 4.63124758 25.11747776 1.25 25.125 C0.07566406 25.104375 -1.09867188 25.08375 -2.30859375 25.0625 C-5.20643612 25.01538061 -8.1018526 24.99556082 -11 25 C-11.28875 25.78375 -11.5775 26.5675 -11.875 27.375 C-13 30 -13 30 -15 32 C-18.125 32.125 -18.125 32.125 -21 32 C-15.25554335 22.81696014 -9.24513246 13.816919 -3.2175293 4.81835938 C-2.14301013 3.21358321 -1.07128937 1.60693406 0 0 Z M1 8 C-0.44734806 9.92689109 -1.810047 11.91793957 -3.125 13.9375 C-3.84945312 15.03964844 -4.57390625 16.14179687 -5.3203125 17.27734375 C-7.08750848 19.60866268 -7.08750848 19.60866268 -7 21 C-1.06 21 4.88 21 11 21 C9.865625 19.22625 8.73125 17.4525 7.5625 15.625 C4.125 10.25 4.125 10.25 3 8 C2.34 8 1.68 8 1 8 Z " fill="#BDAA56" transform="translate(187,45)"/>
<path d="M0 0 C1.70214844 0.0859375 1.70214844 0.0859375 4 1 C5.75071176 3.17999076 7.2602914 5.28513185 8.765625 7.625 C9.20388611 8.28709473 9.64214722 8.94918945 10.09368896 9.63134766 C11.4900667 11.74726418 12.86979653 13.87350697 14.25 16 C15.19430238 17.43295783 16.13960338 18.86525813 17.0859375 20.296875 C24 30.80464028 24 30.80464028 24 32 C21.25 32.3125 21.25 32.3125 18 32 C15.625 29.625 15.625 29.625 14 27 C14 26.34 14 25.68 14 25 C9.91526019 24.99374329 5.8340563 25.05327124 1.75 25.125 C0.01169922 25.12113281 0.01169922 25.12113281 -1.76171875 25.1171875 C-4.95200794 25.19095141 -7.88256361 25.31187597 -11 26 C-13.66506062 28.84633296 -13.66506062 28.84633296 -15 32 C-18.25 32.375 -18.25 32.375 -21 32 C-19.36683364 26.96192924 -16.38257997 23.05425527 -13.3125 18.8125 C-12.23033192 17.29957703 -11.1483002 15.78655651 -10.06640625 14.2734375 C-9.54191895 13.54350586 -9.01743164 12.81357422 -8.47705078 12.06152344 C-6.54705353 9.36782149 -4.64612249 6.65514578 -2.75 3.9375 C-2.20859375 3.16277344 -1.6671875 2.38804688 -1.109375 1.58984375 C-0.74328125 1.06519531 -0.3771875 0.54054687 0 0 Z M0 8 C-1.44734806 9.92689109 -2.810047 11.91793957 -4.125 13.9375 C-4.84945313 15.03964844 -5.57390625 16.14179687 -6.3203125 17.27734375 C-8.08750848 19.60866268 -8.08750848 19.60866268 -8 21 C-2.06 21 3.88 21 10 21 C9.236875 19.5975 8.47375 18.195 7.6875 16.75 C7.25824219 15.96109375 6.82898437 15.1721875 6.38671875 14.359375 C5.05022446 12.08545233 3.71523708 10.00494201 2 8 C1.34 8 0.68 8 0 8 Z " fill="#BDAB56" transform="translate(31,45)"/>
<path d="M0 0 C2.64 0 5.28 0 8 0 C12.86967281 9.48818771 17.50739989 19.07744728 22 28.75 C22.49282471 29.79736328 22.98564941 30.84472656 23.4934082 31.92382812 C23.9493335 32.91318359 24.40525879 33.90253906 24.875 34.921875 C25.28492188 35.80456055 25.69484375 36.68724609 26.1171875 37.59667969 C27 40 27 40 27 44 C25.02 44.99 23.04 45.98 21 47 C18.32616414 41.27295368 15.65743336 35.54354891 12.9921875 29.8125 C12.08547604 27.86436567 11.17761038 25.9167681 10.26855469 23.96972656 C8.95982709 21.1661285 7.65530382 18.36060712 6.3515625 15.5546875 C5.94628326 14.68883026 5.54100403 13.82297302 5.1234436 12.93087769 C3.15237135 8.67817066 1.36253916 4.49701891 0 0 Z " fill="#BEAA56" transform="translate(400,16)"/>
<path d="M0 0 C11.55 0 23.1 0 35 0 C35 1.65 35 3.3 35 5 C30.05 5 25.1 5 20 5 C20 13.91 20 22.82 20 32 C18.35 32 16.7 32 15 32 C15 23.09 15 14.18 15 5 C10.05 5 5.1 5 0 5 C0 3.35 0 1.7 0 0 Z " fill="#BDAB56" transform="translate(642,45)"/>
<path d="M0 0 C3.18086186 2.65796414 4.46819633 5.82347714 6.13671875 9.56640625 C6.42102249 10.20110336 6.70532623 10.83580048 6.99824524 11.48973083 C7.59561888 12.82722307 8.18964394 14.16621532 8.78051758 15.5065918 C9.68734704 17.56215327 10.60547742 19.61237482 11.52539062 21.66210938 C16 31.7097137 16 31.7097137 16 34 C13.36 34 10.72 34 8 34 C6.14126179 30.07071564 4.29007275 26.13799181 2.44580078 22.2019043 C1.81733249 20.86336742 1.18681074 19.52579269 0.55419922 18.18920898 C-0.35470368 16.26795662 -1.2561678 14.34336622 -2.15625 12.41796875 C-2.70087891 11.26063232 -3.24550781 10.1032959 -3.80664062 8.91088867 C-5 6 -5 6 -5 3 C-2.5 1.3125 -2.5 1.3125 0 0 Z " fill="#BEAB56" transform="translate(424,79)"/>
<path d="M0 0 C1.32 0 2.64 0 4 0 C4 9.24 4 18.48 4 28 C12.58 28 21.16 28 30 28 C30 29.32 30 30.64 30 32 C20.1 32 10.2 32 0 32 C0 21.44 0 10.88 0 0 Z " fill="#BDAB56" transform="translate(506,45)"/>
<path d="M0 0 C1.65 0 3.3 0 5 0 C5 10.56 5 21.12 5 32 C3.35 32 1.7 32 0 32 C0 21.44 0 10.88 0 0 Z " fill="#BDAA57" transform="translate(626,45)"/>
<path d="M0 0 C1.65 0 3.3 0 5 0 C5 10.56 5 21.12 5 32 C3.35 32 1.7 32 0 32 C0 21.44 0 10.88 0 0 Z " fill="#BEAB56" transform="translate(547,45)"/>
</svg>
